# xmcd
#
# Track frame offsets: 
#        150
#        6150
#        38547
#        72605
#        105379
#        140802
#        173354
#
# Disc length: 2446 seconds
#
# Revision: 2
# Processed by: cddbd v1.5.2PL0 Copyright (c) Steve Scherf et al.
# Submitted via: ExactAudioCopy v1.0b1
#
DISCID=54098c07
DTITLE=Dizzy Gillespie, Charlie Parker - Town Hall, New York City, Jun
DTITLE=e 22, 1945
DYEAR=1945
DGENRE=Jazz
TTITLE0=Intro
TTITLE1=Bebop
TTITLE2=A Night In Tunisia
TTITLE3=Groovin' High
TTITLE4=Salt Peanuts
TTITLE5=Hot House
TTITLE6=Fifty Second Street Theme
EXTD=YEAR: 1945
EXTT0=
EXTT1=
EXTT2=
EXTT3=
EXTT4=
EXTT5=
EXTT6=
PLAYORDER=
